<?xml version="1.0" encoding="UTF-8"?>
<svg version="1.1" xmlns="http://www.w3.org/2000/svg" width="2000" height="2000">
<path d="M0 0 C11.88 0 23.76 0 36 0 C36 0.99 36 1.98 36 3 C40.95 3.495 40.95 3.495 46 4 C46.66 6.64 47.32 9.28 48 12 C49.485 11.505 49.485 11.505 51 11 C51 17.93 51 24.86 51 32 C52.32 32.33 53.64 32.66 55 33 C55 40.59 55 48.18 55 56 C56.32 56.33 57.64 56.66 59 57 C59 74.16 59 91.32 59 109 C59.66 109 60.32 109 61 109 C61 148.93 61 188.86 61 230 C60.34 230 59.68 230 59 230 C59 240.23 59 250.46 59 261 C57.02 261.495 57.02 261.495 55 262 C55 268.6 55 275.2 55 282 C53.68 282 52.36 282 51 282 C51 288.6 51 295.2 51 302 C50.34 301.34 49.68 300.68 49 300 C47.58365167 302.83269666 47.6536995 305.47466438 47.4375 308.625 C47.35371094 309.81351562 47.26992187 311.00203125 47.18359375 312.2265625 C47.09271484 313.59941406 47.09271484 313.59941406 47 315 C45.68 315 44.36 315 43 315 C43 319.29 43 323.58 43 328 C42.01 327.67 41.02 327.34 40 327 C39.67 331.62 39.34 336.24 39 341 C38.34 340.67 37.68 340.34 37 340 C36.34 343.96 35.68 347.92 35 352 C33.68 351.67 32.36 351.34 31 351 C31.01160156 351.69867188 31.02320313 352.39734375 31.03515625 353.1171875 C31.04869141 354.48230469 31.04869141 354.48230469 31.0625 355.875 C31.07410156 356.77992188 31.08570313 357.68484375 31.09765625 358.6171875 C31 361 31 361 30 363 C29.01 363.66 28.02 364.32 27 365 C26.74969023 367.58380177 26.74969023 367.58380177 27 370 C25.02 370.495 25.02 370.495 23 371 C23.020625 371.94875 23.04125 372.8975 23.0625 373.875 C23 377 23 377 22 379 C21.01 379 20.02 379 19 379 C18.67 381.64 18.34 384.28 18 387 C17.01 387 16.02 387 15 387 C14.67 389.64 14.34 392.28 14 395 C13.01 395 12.02 395 11 395 C10.67 397.64 10.34 400.28 10 403 C8.68 403 7.36 403 6 403 C6 405.64 6 408.28 6 411 C5.01 411.33 4.02 411.66 3 412 C2.26676204 414.01508358 2.26676204 414.01508358 2 416 C0.68 416 -0.64 416 -2 416 C-2 418.31 -2 420.62 -2 423 C-3.98 423.495 -3.98 423.495 -6 424 C-6 425.32 -6 426.64 -6 428 C-6.99 428.33 -7.98 428.66 -9 429 C-9.6814823 430.89179203 -9.6814823 430.89179203 -10 433 C-10.33 433.99 -10.66 434.98 -11 436 C-11.99 436 -12.98 436 -14 436 C-14 437.32 -14 438.64 -14 440 C-15.32 440 -16.64 440 -18 440 C-18 441.32 -18 442.64 -18 444 C-18.99 444 -19.98 444 -21 444 C-21.33 446.64 -21.66 449.28 -22 452 C-23.98 452.495 -23.98 452.495 -26 453 C-26 453.99 -26 454.98 -26 456 C-27.98 456.495 -27.98 456.495 -30 457 C-30 457.99 -30 458.98 -30 460 C-31.98 460.495 -31.98 460.495 -34 461 C-34 461.99 -34 462.98 -34 464 C-35.32 464 -36.64 464 -38 464 C-38 465.32 -38 466.64 -38 468 C-39.32 468 -40.64 468 -42 468 C-42 469.32 -42 470.64 -42 472 C-43.32 472 -44.64 472 -46 472 C-46 473.32 -46 474.64 -46 476 C-47.32 476 -48.64 476 -50 476 C-50 477.32 -50 478.64 -50 480 C-51.32 480 -52.64 480 -54 480 C-54 481.32 -54 482.64 -54 484 C-55.32 484 -56.64 484 -58 484 C-58 485.32 -58 486.64 -58 488 C-58.639375 488.103125 -59.27875 488.20625 -59.9375 488.3125 C-60.618125 488.539375 -61.29875 488.76625 -62 489 C-62.33 489.99 -62.66 490.98 -63 492 C-63.99 492.33 -64.98 492.66 -66 493 C-66.33 493.99 -66.66 494.98 -67 496 C-68.33333333 496.33333333 -69.66666667 496.66666667 -71 497 C-71.33 497.99 -71.66 498.98 -72 500 C-73.98 500.33 -75.96 500.66 -78 501 C-78 501.99 -78 502.98 -78 504 C-78.639375 504.103125 -79.27875 504.20625 -79.9375 504.3125 C-80.618125 504.539375 -81.29875 504.76625 -82 505 C-82.33 505.99 -82.66 506.98 -83 508 C-84.3153341 508.70151152 -85.65117592 509.36525925 -87 510 C-87.495 510.53625 -87.99 511.0725 -88.5 511.625 C-90 513 -90 513 -94 513 C-94.33 514.32 -94.66 515.64 -95 517 C-96.32 517 -97.64 517 -99 517 C-99 518.32 -99 519.64 -99 521 C-101.31 521 -103.62 521 -106 521 C-106 522.32 -106 523.64 -106 525 C-107.98 525 -109.96 525 -112 525 C-112 526.32 -112 527.64 -112 529 C-114.31 529 -116.62 529 -119 529 C-119 530.32 -119 531.64 -119 533 C-121.64 533 -124.28 533 -127 533 C-126.67 534.32 -126.34 535.64 -126 537 C-128.31 537.33 -130.62 537.66 -133 538 C-133 538.99 -133 539.98 -133 541 C-135.64 541.33 -138.28 541.66 -141 542 C-141 542.99 -141 543.98 -141 545 C-143.97 545.33 -146.94 545.66 -150 546 C-150 546.99 -150 547.98 -150 549 C-152.97 549 -155.94 549 -159 549 C-159 550.32 -159 551.64 -159 553 C-161.97 553.33 -164.94 553.66 -168 554 C-168 554.99 -168 555.98 -168 557 C-171.63 557 -175.26 557 -179 557 C-179 558.32 -179 559.64 -179 561 C-182.63 561.33 -186.26 561.66 -190 562 C-190 562.99 -190 563.98 -190 565 C-193.96 565.33 -197.92 565.66 -202 566 C-202 566.99 -202 567.98 -202 569 C-206.62 569.33 -211.24 569.66 -216 570 C-215.67 570.99 -215.34 571.98 -215 573 C-219.62 573.33 -224.24 573.66 -229 574 C-229.33 574.99 -229.66 575.98 -230 577 C-235.28 577.33 -240.56 577.66 -246 578 C-246.33 578.99 -246.66 579.98 -247 581 C-253.6 581.33 -260.2 581.66 -267 582 C-266.67 582.99 -266.34 583.98 -266 585 C-266.68626465 585.01981934 -267.3725293 585.03963867 -268.07958984 585.06005859 C-271.17845779 585.15510945 -274.27663294 585.26486847 -277.375 585.375 C-278.45523437 585.4059375 -279.53546875 585.436875 -280.6484375 585.46875 C-282.1953125 585.52675781 -282.1953125 585.52675781 -283.7734375 585.5859375 C-284.72653809 585.6173584 -285.67963867 585.6487793 -286.66162109 585.68115234 C-289.18895176 585.78555796 -289.18895176 585.78555796 -291 588 C-291 588.33 -291 588.66 -291 589 C-305.85 589.33 -320.7 589.66 -336 590 C-335.67 590.99 -335.34 591.98 -335 593 C-367.34 593 -399.68 593 -433 593 C-433 586.4 -433 579.8 -433 573 C-432.01 573 -431.02 573 -430 573 C-429.67 567.72 -429.34 562.44 -429 557 C-427.68 557 -426.36 557 -425 557 C-425 553.04 -425 549.08 -425 545 C-423.68 545 -422.36 545 -421 545 C-421 541.04 -421 537.08 -421 533 C-419.68 533 -418.36 533 -417 533 C-417 530.36 -417 527.72 -417 525 C-416.01 525 -415.02 525 -414 525 C-413.67 521.04 -413.34 517.08 -413 513 C-411.68 513 -410.36 513 -409 513 C-409 510.36 -409 507.72 -409 505 C-407.68 504.67 -406.36 504.34 -405 504 C-405 501.69 -405 499.38 -405 497 C-403.68 496.67 -402.36 496.34 -401 496 C-401 493.36 -401 490.72 -401 488 C-399.68 488 -398.36 488 -397 488 C-397 485.36 -397 482.72 -397 480 C-395.68 480 -394.36 480 -393 480 C-393 477.36 -393 474.72 -393 472 C-391.68 472 -390.36 472 -389 472 C-389 469.69 -389 467.38 -389 465 C-387.68 464.67 -386.36 464.34 -385 464 C-385 462.35 -385 460.7 -385 459 C-384.01 459.33 -383.02 459.66 -382 460 C-381.67 457.36 -381.34 454.72 -381 452 C-379.68 452 -378.36 452 -377 452 C-376.67 449.36 -376.34 446.72 -376 444 C-375.01 443.67 -374.02 443.34 -373 443 C-373 442.01 -373 441.02 -373 440 C-371.68 440 -370.36 440 -369 440 C-368.67 437.36 -368.34 434.72 -368 432 C-367.01 431.67 -366.02 431.34 -365 431 C-364.67 430.01 -364.34 429.02 -364 428 C-363.01 428 -362.02 428 -361 428 C-361 426.35 -361 424.7 -361 423 C-359.68 423 -358.36 423 -357 423 C-356.896875 422.236875 -356.79375 421.47375 -356.6875 420.6875 C-355.93772808 417.75657342 -355.16526733 416.98482838 -353 415 C-352.67 414.01 -352.34 413.02 -352 412 C-351.01 411.67 -350.02 411.34 -349 411 C-348.67 410.01 -348.34 409.02 -348 408 C-347.01 408 -346.02 408 -345 408 C-344.896875 407.360625 -344.79375 406.72125 -344.6875 406.0625 C-344.460625 405.381875 -344.23375 404.70125 -344 404 C-343.01 403.67 -342.02 403.34 -341 403 C-340.26676204 400.98491642 -340.26676204 400.98491642 -340 399 C-338.68 399 -337.36 399 -336 399 C-336.33 397.68 -336.66 396.36 -337 395 C-335.68 395 -334.36 395 -333 395 C-333 393.68 -333 392.36 -333 391 C-331.68 391 -330.36 391 -329 391 C-329 389.68 -329 388.36 -329 387 C-327.35 387 -325.7 387 -324 387 C-324 385.68 -324 384.36 -324 383 C-322.68 383 -321.36 383 -320 383 C-320 381.68 -320 380.36 -320 379 C-318.68 379 -317.36 379 -316 379 C-316 377.68 -316 376.36 -316 375 C-314.02 374.505 -314.02 374.505 -312 374 C-312 373.01 -312 372.02 -312 371 C-310.35 370.67 -308.7 370.34 -307 370 C-307 369.01 -307 368.02 -307 367 C-305.02 366.67 -303.04 366.34 -301 366 C-301 365.01 -301 364.02 -301 363 C-299.02 363 -297.04 363 -295 363 C-295 361.68 -295 360.36 -295 359 C-293.02 358.67 -291.04 358.34 -289 358 C-289 357.01 -289 356.02 -289 355 C-287.02 355 -285.04 355 -283 355 C-283 353.68 -283 352.36 -283 351 C-280.69 350.67 -278.38 350.34 -276 350 C-276 349.01 -276 348.02 -276 347 C-274.88625 346.896875 -273.7725 346.79375 -272.625 346.6875 C-271.42875 346.460625 -270.2325 346.23375 -269 346 C-268.34 345.01 -267.68 344.02 -267 343 C-265.08984375 342.3046875 -265.08984375 342.3046875 -262.9375 341.875 C-260.19686221 341.45747638 -260.19686221 341.45747638 -258 340 C-261.3 340 -264.6 340 -268 340 C-268 340.99 -268 341.98 -268 343 C-271.63 343.33 -275.26 343.66 -279 344 C-279.33 344.99 -279.66 345.98 -280 347 C-283.3 347.33 -286.6 347.66 -290 348 C-290.33 348.99 -290.66 349.98 -291 351 C-293.97 351.33 -296.94 351.66 -300 352 C-300 352.99 -300 353.98 -300 355 C-302.64 355.33 -305.28 355.66 -308 356 C-308 356.99 -308 357.98 -308 359 C-310.31 359.66 -312.62 360.32 -315 361 C-315 361.66 -315 362.32 -315 363 C-316.98 363.33 -318.96 363.66 -321 364 C-321.33 364.99 -321.66 365.98 -322 367 C-323.98 367.33 -325.96 367.66 -328 368 C-328 368.99 -328 369.98 -328 371 C-329.65 371.33 -331.3 371.66 -333 372 C-333.33 372.99 -333.66 373.98 -334 375 C-335.98 375.33 -337.96 375.66 -340 376 C-340.33 376.99 -340.66 377.98 -341 379 C-342.33333333 379.33333333 -343.66666667 379.66666667 -345 380 C-345.33 380.99 -345.66 381.98 -346 383 C-347.65 383.33 -349.3 383.66 -351 384 C-351 384.99 -351 385.98 -351 387 C-352.65 387.33 -354.3 387.66 -356 388 C-356 388.99 -356 389.98 -356 391 C-356.639375 391.103125 -357.27875 391.20625 -357.9375 391.3125 C-358.618125 391.539375 -359.29875 391.76625 -360 392 C-360.33 392.99 -360.66 393.98 -361 395 C-362.33333333 395.33333333 -363.66666667 395.66666667 -365 396 C-365.33 396.99 -365.66 397.98 -366 399 C-366.99 399.33 -367.98 399.66 -369 400 C-369.33 400.99 -369.66 401.98 -370 403 C-370.598125 403.28875 -371.19625 403.5775 -371.8125 403.875 C-375.2580369 405.64699041 -377.28723695 408.57447391 -379 412 C-379.99 412.33 -380.98 412.66 -382 413 C-382.33 413.99 -382.66 414.98 -383 416 C-383.99 416.33 -384.98 416.66 -386 417 C-386.33 417.99 -386.66 418.98 -387 420 C-387.99 420.495 -387.99 420.495 -389 421 C-389.33 421.99 -389.66 422.98 -390 424 C-391.32 424 -392.64 424 -394 424 C-394 425.32 -394 426.64 -394 428 C-395.32 428 -396.64 428 -398 428 C-398 429.32 -398 430.64 -398 432 C-398.99 432.66 -399.98 433.32 -401 434 C-401 434.66 -401 435.32 -401 436 C-401.99 436.33 -402.98 436.66 -404 437 C-404 437.99 -404 438.98 -404 440 C-404.66 440 -405.32 440 -406 440 C-406 441.32 -406 442.64 -406 444 C-407.32 444 -408.64 444 -410 444 C-410 445.32 -410 446.64 -410 448 C-411.32 448 -412.64 448 -414 448 C-413.67 449.65 -413.34 451.3 -413 453 C-413.99 453 -414.98 453 -416 453 C-416 453.99 -416 454.98 -416 456 C-416.66 456 -417.32 456 -418 456 C-418 457.32 -418 458.64 -418 460 C-419.32 460 -420.64 460 -422 460 C-422 461.32 -422 462.64 -422 464 C-422.99 464 -423.98 464 -425 464 C-425.33 466.64 -425.66 469.28 -426 472 C-427.32 472 -428.64 472 -430 472 C-429.773125 472.763125 -429.54625 473.52625 -429.3125 474.3125 C-429 477 -429 477 -430.3125 478.8125 C-432 480 -432 480 -434 480 C-434 481.32 -434 482.64 -434 484 C-434.99 484 -435.98 484 -437 484 C-437.33 486.64 -437.66 489.28 -438 492 C-438.99 492 -439.98 492 -441 492 C-441.33 494.64 -441.66 497.28 -442 500 C-442.99 500 -443.98 500 -445 500 C-445.33 502.64 -445.66 505.28 -446 508 C-446.99 508 -447.98 508 -449 508 C-449.33 511.96 -449.66 515.92 -450 520 C-450.99 520.33 -451.98 520.66 -453 521 C-453.33 523.31 -453.66 525.62 -454 528 C-455.32 528.33 -456.64 528.66 -458 529 C-458 532.96 -458 536.92 -458 541 C-459.32 541 -460.64 541 -462 541 C-462 543.97 -462 546.94 -462 550 C-462.66 550 -463.32 550 -464 550 C-465.00259507 553.00778521 -465.30314642 555.53820647 -465.5625 558.6875 C-465.64628906 559.68136719 -465.73007813 560.67523437 -465.81640625 561.69921875 C-465.87699219 562.45847656 -465.93757813 563.21773437 -466 564 C-467.32 564.33 -468.64 564.66 -470 565 C-470 568.96 -470 572.92 -470 577 C-470.99 577 -471.98 577 -473 577 C-473.33 582.28 -473.66 587.56 -474 593 C-475.32 593 -476.64 593 -478 593 C-478 598.61 -478 604.22 -478 610 C-478.99 609.67 -479.98 609.34 -481 609 C-481.33 615.27 -481.66 621.54 -482 628 C-482.66 627.67 -483.32 627.34 -484 627 C-485.18695553 630.56086658 -485.35095418 633.97331024 -485.5625 637.6875 C-485.60568359 638.38939453 -485.64886719 639.09128906 -485.69335938 639.81445312 C-485.7991736 641.54275206 -485.90006581 643.2713511 -486 645 C-487.32 645.33 -488.64 645.66 -490 646 C-489.86181468 649.47951523 -489.71317399 652.95850495 -489.5625 656.4375 C-489.50352539 657.92733398 -489.50352539 657.92733398 -489.44335938 659.44726562 C-489.40146484 660.39150391 -489.35957031 661.33574219 -489.31640625 662.30859375 C-489.26141968 663.62041626 -489.26141968 663.62041626 -489.20532227 664.95874023 C-489.21818934 666.9927402 -489.21818934 666.9927402 -488 668 C-486.56677736 668.23855688 -485.12404996 668.4204748 -483.6796875 668.578125 C-462.02423221 671.08459634 -441.46972135 675.43238075 -421 683 C-420.27683594 683.26506348 -419.55367187 683.53012695 -418.80859375 683.80322266 C-402.29156256 689.95851816 -386.54283704 698.37984517 -371.5625 707.625 C-370.88823975 708.03854736 -370.21397949 708.45209473 -369.51928711 708.87817383 C-367.97374387 709.85974964 -366.47978563 710.92183979 -365 712 C-365 712.66 -365 713.32 -365 714 C-364.32710937 714.21140625 -363.65421875 714.4228125 -362.9609375 714.640625 C-359.00584934 716.45641746 -355.96292214 718.98524411 -352.625 721.75 C-351.92963135 722.32129639 -351.2342627 722.89259277 -350.51782227 723.48120117 C-323.7658157 745.70255291 -323.7658157 745.70255291 -321 754 C-320.34 754 -319.68 754 -319 754 C-317.67138672 755.43701172 -317.67138672 755.43701172 -316.1796875 757.4296875 C-315.64472656 758.14253906 -315.10976562 758.85539063 -314.55859375 759.58984375 C-314.00300781 760.34394531 -313.44742187 761.09804688 -312.875 761.875 C-312.31167969 762.62136719 -311.74835938 763.36773438 -311.16796875 764.13671875 C-307 769.73774213 -307 769.73774213 -307 772 C-306.34 772 -305.68 772 -305 772 C-303.84594727 773.50268555 -303.84594727 773.50268555 -302.56640625 775.63671875 C-302.0878418 776.43078125 -301.60927734 777.22484375 -301.11621094 778.04296875 C-300.60348633 778.91566406 -300.09076172 779.78835938 -299.5625 780.6875 C-299.03043945 781.58726562 -298.49837891 782.48703125 -297.95019531 783.4140625 C-268 834.5545973 -268 834.5545973 -268 855 C-193.42 854.67 -118.84 854.34 -42 854 C-38.535 843.605 -38.535 843.605 -35 833 C-26.75685959 814.25350325 -16.92265518 796.73685479 -4.3125 780.5625 C-3.86084473 779.98290527 -3.40918945 779.40331055 -2.94384766 778.80615234 C-0.16306626 775.30083708 2.80463899 772.14120235 6 769 C6.721875 768.071875 7.44375 767.14375 8.1875 766.1875 C8.785625 765.465625 9.38375 764.74375 10 764 C10.66 764 11.32 764 12 764 C12.33 763.01 12.66 762.02 13 761 C13.66 761 14.32 761 15 761 C15.33 760.01 15.66 759.02 16 758 C17.42578125 756.52734375 17.42578125 756.52734375 19.3125 754.9375 C20.40884766 754.01324219 20.40884766 754.01324219 21.52734375 753.0703125 C22.75130859 752.04550781 22.75130859 752.04550781 24 751 C24.84691406 750.25492188 25.69382812 749.50984375 26.56640625 748.7421875 C38.21186112 738.66781625 51.19836953 729.84662035 65 723 C65.95036133 722.51200928 65.95036133 722.51200928 66.91992188 722.01416016 C83.7983749 713.3773209 101.42727259 707.22659171 119.9375 703.125 C120.79891602 702.93389648 121.66033203 702.74279297 122.54785156 702.54589844 C136.89620026 699.58154143 151.25772741 698.58526037 165.875 698.625 C166.6733728 698.62587616 167.47174561 698.62675232 168.29431152 698.62765503 C218.44271482 698.80754789 273.33199412 716.76673164 309.72265625 752.6875 C310.47417969 753.450625 311.22570313 754.21375 312 755 C312.928125 755.721875 313.85625 756.44375 314.8125 757.1875 C315.8953125 758.0846875 315.8953125 758.0846875 317 759 C317 759.66 317 760.32 317 761 C317.99 761.33 318.98 761.66 320 762 C320 762.66 320 763.32 320 764 C320.99 764.33 321.98 764.66 323 765 C325.54665092 767.46559041 327.7240504 770.28520945 330 773 C330.73347656 773.82371094 331.46695312 774.64742187 332.22265625 775.49609375 C356.71416743 803.57172852 371.78007212 838.73331856 379 875 C379.17644043 875.83112305 379.35288086 876.66224609 379.53466797 877.51855469 C387.91903627 918.01945764 381.42623633 963.41426447 365 1001 C364.66097656 1001.77827148 364.32195312 1002.55654297 363.97265625 1003.35839844 C354.56500681 1024.66345069 341.79230591 1045.68747426 325 1062 C324.1646875 1063.1446875 324.1646875 1063.1446875 323.3125 1064.3125 C322.6628125 1065.1478125 322.6628125 1065.1478125 322 1066 C321.34 1066 320.68 1066 320 1066 C319.67 1066.99 319.34 1067.98 319 1069 C318.34 1069 317.68 1069 317 1069 C316.67 1069.99 316.34 1070.98 316 1072 C314.57421875 1073.47265625 314.57421875 1073.47265625 312.6875 1075.0625 C311.95660156 1075.67867187 311.22570313 1076.29484375 310.47265625 1076.9296875 C309.65667969 1077.61289063 308.84070312 1078.29609375 308 1079 C306.72962891 1080.11761719 306.72962891 1080.11761719 305.43359375 1081.2578125 C293.78813888 1091.33218375 280.80163047 1100.15337965 267 1107 C266.04963867 1107.48799072 266.04963867 1107.48799072 265.08007812 1107.98583984 C248.2016251 1116.6226791 230.57272741 1122.77340829 212.0625 1126.875 C211.20108398 1127.06610352 210.33966797 1127.25720703 209.45214844 1127.45410156 C194.95623845 1130.44894461 180.51338721 1131.38402582 165.75 1131.3125 C164.94195923 1131.31034485 164.13391846 1131.3081897 163.3013916 1131.30596924 C150.64650247 1131.25200582 138.41075857 1130.6503371 126 1128 C125.01676758 1127.79600586 124.03353516 1127.59201172 123.02050781 1127.38183594 C83.29281122 1118.97107244 43.670065 1100.50108137 15 1071 C15 1070.34 15 1069.68 15 1069 C14.01 1068.67 13.02 1068.34 12 1068 C12 1067.34 12 1066.68 12 1066 C11.01 1065.67 10.02 1065.34 9 1065 C6.45334908 1062.53440959 4.2759496 1059.71479055 2 1057 C1.26652344 1056.17628906 0.53304688 1055.35257813 -0.22265625 1054.50390625 C-16.9936741 1035.27859311 -42 999.82144898 -42 973 C-116.58 973 -191.16 973 -268 973 C-268.33 975.64 -268.66 978.28 -269 981 C-269.64501953 983.56616211 -269.64501953 983.56616211 -270.3828125 985.77734375 C-270.79696411 987.02813721 -270.79696411 987.02813721 -271.21948242 988.30419922 C-271.51830322 989.17318848 -271.81712402 990.04217773 -272.125 990.9375 C-272.43993408 991.86062988 -272.75486816 992.78375977 -273.0793457 993.73486328 C-280.2966121 1014.60393724 -289.65498102 1034.6372141 -302 1053 C-302.51433594 1053.91523437 -303.02867188 1054.83046875 -303.55859375 1055.7734375 C-304.03425781 1056.50820312 -304.50992187 1057.24296875 -305 1058 C-305.66 1058 -306.32 1058 -307 1058 C-307.21140625 1058.67289063 -307.4228125 1059.34578125 -307.640625 1060.0390625 C-309.45641746 1063.99415066 -311.98524411 1067.03707786 -314.75 1070.375 C-315.60694458 1071.41805298 -315.60694458 1071.41805298 -316.48120117 1072.48217773 C-338.70255291 1099.2341843 -338.70255291 1099.2341843 -347 1102 C-347 1102.66 -347 1103.32 -347 1104 C-348.65 1104.66 -350.3 1105.32 -352 1106 C-352 1106.66 -352 1107.32 -352 1108 C-353.73548169 1109.44526736 -355.53975963 1110.8087222 -357.375 1112.125 C-358.37273437 1112.84945313 -359.37046875 1113.57390625 -360.3984375 1114.3203125 C-363 1116 -363 1116 -365 1116 C-365 1116.66 -365 1117.32 -365 1118 C-366.50268555 1119.15405273 -366.50268555 1119.15405273 -368.63671875 1120.43359375 C-369.43078125 1120.9121582 -370.22484375 1121.39072266 -371.04296875 1121.88378906 C-371.91566406 1122.39651367 -372.78835938 1122.90923828 -373.6875 1123.4375 C-374.58726563 1123.96956055 -375.48703125 1124.50162109 -376.4140625 1125.04980469 C-427.5545973 1155 -427.5545973 1155 -448 1155 C-447.85771212 1177.81252304 -447.71162538 1200.62502067 -447.5625 1223.4375 C-447.55698576 1224.28170486 -447.55147153 1225.12590972 -447.5457902 1225.99569654 C-447.24985297 1271.26878108 -446.92449376 1316.54099281 -446.4375 1361.8125 C-446.4263982 1362.84486156 -446.4152964 1363.87722313 -446.40385818 1364.94086838 C-446.27417404 1376.96063597 -446.14009364 1388.98034916 -446 1401 C-445.42570755 1401.18423019 -444.8514151 1401.36846039 -444.25971985 1401.55827332 C-423.0894525 1408.38476341 -423.0894525 1408.38476341 -413.1875 1413.3125 C-412.23520508 1413.77760986 -411.28291016 1414.24271973 -410.30175781 1414.72192383 C-390.86320363 1424.39046033 -371.17282739 1437.38738051 -356 1453 C-356 1453.66 -356 1454.32 -356 1455 C-355.01 1455.33 -354.02 1455.66 -353 1456 C-353 1456.66 -353 1457.32 -353 1458 C-352.01 1458.33 -351.02 1458.66 -350 1459 C-348.52734375 1460.42578125 -348.52734375 1460.42578125 -346.9375 1462.3125 C-346.32132813 1463.04339844 -345.70515625 1463.77429687 -345.0703125 1464.52734375 C-344.38710937 1465.34332031 -343.70390625 1466.15929688 -343 1467 C-341.88238281 1468.27037109 -341.88238281 1468.27037109 -340.7421875 1469.56640625 C-331.20481655 1480.5911164 -322.60003353 1492.74223027 -316.41796875 1505.9765625 C-315.36511524 1508.22148981 -314.27588903 1510.3993339 -313.11328125 1512.5859375 C-301.7393766 1534.14412225 -295.30666453 1557.92656689 -292 1582 C-291.814375 1583.29164062 -291.62875 1584.58328125 -291.4375 1585.9140625 C-290.63384179 1593.4869956 -290.75557214 1601.14242775 -290.75 1608.75 C-290.74898788 1609.99003784 -290.74898788 1609.99003784 -290.74795532 1611.25512695 C-290.76455384 1624.06608163 -291.34228805 1636.42967068 -294 1649 C-294.17160645 1649.84304688 -294.34321289 1650.68609375 -294.52001953 1651.5546875 C-299.19422843 1674.07777455 -306.34499089 1696.25055368 -318.6484375 1715.82421875 C-319.96682333 1717.94659131 -321.14323839 1720.10522043 -322.3125 1722.3125 C-329.13310429 1734.66803557 -338.02944328 1746.06273395 -348 1756 C-348.8353125 1757.1446875 -348.8353125 1757.1446875 -349.6875 1758.3125 C-350.3371875 1759.1478125 -350.3371875 1759.1478125 -351 1760 C-351.66 1760 -352.32 1760 -353 1760 C-353.33 1760.99 -353.66 1761.98 -354 1763 C-354.66 1763 -355.32 1763 -356 1763 C-356.33 1763.99 -356.66 1764.98 -357 1766 C-359.46559041 1768.54665092 -362.28520945 1770.7240504 -365 1773 C-365.82371094 1773.73347656 -366.64742187 1774.46695312 -367.49609375 1775.22265625 C-398.47101219 1802.24332978 -438.46998134 1818.6555347 -479 1824 C-479.70503662 1824.09498779 -480.41007324 1824.18997559 -481.13647461 1824.2878418 C-518.73335166 1828.71170775 -558.45995344 1823.61362866 -593 1808 C-593.72848145 1807.67805664 -594.45696289 1807.35611328 -595.20751953 1807.02441406 C-617.92560326 1796.93271303 -640.57557451 1782.9294813 -658 1765 C-658 1764.34 -658 1763.68 -658 1763 C-658.99 1762.67 -659.98 1762.34 -661 1762 C-661 1761.34 -661 1760.68 -661 1760 C-661.99 1759.67 -662.98 1759.34 -664 1759 C-666.54665092 1756.53440959 -668.7240504 1753.71479055 -671 1751 C-671.73347656 1750.17628906 -672.46695313 1749.35257813 -673.22265625 1748.50390625 C-689.28925014 1730.0861035 -701.70195234 1707.94460166 -710 1685 C-710.42796875 1683.83726563 -710.8559375 1682.67453125 -711.296875 1681.4765625 C-729.68268766 1629.15644128 -727.74710044 1568.63143765 -704.125 1518.1875 C-694.47823714 1498.22487537 -682.74950241 1477.53804747 -666.33984375 1462.33203125 C-664.74850776 1460.83832599 -664.74850776 1460.83832599 -663 1458 C-662.34 1458 -661.68 1458 -661 1458 C-660.67 1457.01 -660.34 1456.02 -660 1455 C-659.34 1455 -658.68 1455 -658 1455 C-657.67 1454.01 -657.34 1453.02 -657 1452 C-654.53440959 1449.45334908 -651.71479055 1447.2759496 -649 1445 C-648.17628906 1444.26652344 -647.35257813 1443.53304688 -646.50390625 1442.77734375 C-624.67643786 1423.73636069 -598.95689121 1411.80250589 -572 1402 C-572 1320.16 -572 1238.32 -572 1154 C-577.94 1152.515 -577.94 1152.515 -584 1151 C-604.78169973 1144.44984179 -624.6468275 1134.69236055 -643 1123 C-644.32644531 1122.21109375 -644.32644531 1122.21109375 -645.6796875 1121.40625 C-647.48922299 1120.32929462 -649.2533997 1119.17628184 -651 1118 C-651 1117.34 -651 1116.68 -651 1116 C-651.99 1115.690625 -651.99 1115.690625 -653 1115.375 C-657.07180186 1113.50875748 -660.68796998 1111.02438473 -664 1108 C-664 1107.34 -664 1106.68 -664 1106 C-664.73605469 1105.75636719 -665.47210937 1105.51273438 -666.23046875 1105.26171875 C-669.33480197 1103.84747386 -670.98285432 1102.28694998 -673.3125 1099.8125 C-676.11073731 1096.90788343 -678.90945363 1094.1533772 -682 1091.5625 C-689.51140551 1085.06934003 -695.69484301 1077.25901176 -702 1069.625 C-702.57645264 1068.9347876 -703.15290527 1068.2445752 -703.74682617 1067.53344727 C-704.28412354 1066.87530029 -704.8214209 1066.21715332 -705.375 1065.5390625 C-705.85710938 1064.95334473 -706.33921875 1064.36762695 -706.8359375 1063.76416016 C-708.09864548 1061.85050079 -708.57699873 1060.23981629 -709 1058 C-709.66 1058 -710.32 1058 -711 1058 C-718.88563081 1047.28362993 -724.80988967 1034.73325719 -731 1023 C-731.35481445 1022.33274902 -731.70962891 1021.66549805 -732.07519531 1020.97802734 C-736.60733216 1012.33374749 -739.75536968 1003.28984399 -742.875 994.0625 C-743.26905029 992.90016846 -743.66310059 991.73783691 -744.0690918 990.5402832 C-744.61883667 988.86712036 -744.61883667 988.86712036 -745.1796875 987.16015625 C-745.50694824 986.16636963 -745.83420898 985.17258301 -746.17138672 984.14868164 C-747 981 -747 981 -748 973 C-826.21 973 -904.42 973 -985 973 C-985.66 976.3 -986.32 979.6 -987 983 C-987.95455179 985.87423213 -988.93410026 988.6375757 -990.0625 991.4375 C-990.36631592 992.20046387 -990.67013184 992.96342773 -990.9831543 993.74951172 C-1001.62589341 1020.0282106 -1016.48914988 1046.06692031 -1037 1066 C-1037.66 1066 -1038.32 1066 -1039 1066 C-1039.33 1066.99 -1039.66 1067.98 -1040 1069 C-1040.66 1069 -1041.32 1069 -1042 1069 C-1042.33 1069.99 -1042.66 1070.98 -1043 1072 C-1044.42578125 1073.47265625 -1044.42578125 1073.47265625 -1046.3125 1075.0625 C-1047.40884766 1075.98675781 -1047.40884766 1075.98675781 -1048.52734375 1076.9296875 C-1049.34332031 1077.61289063 -1050.15929688 1078.29609375 -1051 1079 C-1052.27037109 1080.11761719 -1052.27037109 1080.11761719 -1053.56640625 1081.2578125 C-1064.59173527 1090.79571883 -1076.74125872 1099.39285902 -1089.97265625 1105.58203125 C-1092.2264422 1106.63767551 -1094.42099065 1107.72886057 -1096.62109375 1108.88671875 C-1114.58164004 1118.29106977 -1133.16163852 1123.9484811 -1153 1128 C-1153.87897949 1128.18079102 -1154.75795898 1128.36158203 -1155.66357422 1128.54785156 C-1209.1643181 1138.97640191 -1267.76332004 1125.93915347 -1312.9375 1096 C-1322.359077 1089.58277527 -1331.90070893 1082.72192624 -1339.66796875 1074.33984375 C-1341.16167401 1072.74850776 -1341.16167401 1072.74850776 -1344 1071 C-1344 1070.34 -1344 1069.68 -1344 1069 C-1344.99 1068.67 -1345.98 1068.34 -1347 1068 C-1347 1067.34 -1347 1066.68 -1347 1066 C-1347.99 1065.67 -1348.98 1065.34 -1350 1065 C-1352.54665092 1062.53440959 -1354.7240504 1059.71479055 -1357 1057 C-1357.73347656 1056.17628906 -1358.46695312 1055.35257813 -1359.22265625 1054.50390625 C-1386.10464776 1023.68796477 -1402.86250854 983.3875706 -1408 943 C-1408.0935376 942.29931396 -1408.1870752 941.59862793 -1408.28344727 940.87670898 C-1413.70221807 894.87812444 -1404.50139076 846.98372832 -1381 807 C-1380.62794434 806.36433105 -1380.25588867 805.72866211 -1379.87255859 805.07373047 C-1372.18463334 792.07496214 -1363.68826613 778.77378122 -1352.5234375 768.48046875 C-1350.76543922 766.87579008 -1350.76543922 766.87579008 -1349 764 C-1348.34 764 -1347.68 764 -1347 764 C-1346.67 763.01 -1346.34 762.02 -1346 761 C-1345.34 761 -1344.68 761 -1344 761 C-1343.67 760.01 -1343.34 759.02 -1343 758 C-1341.57421875 756.52734375 -1341.57421875 756.52734375 -1339.6875 754.9375 C-1338.95660156 754.32132813 -1338.22570313 753.70515625 -1337.47265625 753.0703125 C-1336.24869141 752.04550781 -1336.24869141 752.04550781 -1335 751 C-1334.15308594 750.25492188 -1333.30617188 749.50984375 -1332.43359375 748.7421875 C-1321.40826473 739.20428117 -1309.25874128 730.60714098 -1296.02734375 724.41796875 C-1293.7735578 723.36232449 -1291.57900935 722.27113943 -1289.37890625 721.11328125 C-1267.95908828 709.90338784 -1244.93863484 703.15665296 -1221 700 C-1220.29496338 699.90501221 -1219.58992676 699.81002441 -1218.86352539 699.7121582 C-1181.26664834 695.28829225 -1141.54004656 700.38637134 -1107 716 C-1106.27151855 716.32194336 -1105.54303711 716.64388672 -1104.79248047 716.97558594 C-1082.07439674 727.06728697 -1059.42442549 741.0705187 -1042 759 C-1042 759.66 -1042 760.32 -1042 761 C-1041.01 761.33 -1040.02 761.66 -1039 762 C-1039 762.66 -1039 763.32 -1039 764 C-1038.01 764.33 -1037.02 764.66 -1036 765 C-1034.52734375 766.42578125 -1034.52734375 766.42578125 -1032.9375 768.3125 C-1032.32132813 769.04339844 -1031.70515625 769.77429688 -1031.0703125 770.52734375 C-1030.38710937 771.34332031 -1029.70390625 772.15929687 -1029 773 C-1028.25492188 773.84691406 -1027.50984375 774.69382812 -1026.7421875 775.56640625 C-1016.66975711 787.20961759 -1007.83853829 800.19695034 -1001 814 C-1000.66935547 814.64952637 -1000.33871094 815.29905273 -999.99804688 815.96826172 C-998.83501768 818.26201374 -997.69652432 820.56678156 -996.5625 822.875 C-996.21485596 823.56263428 -995.86721191 824.25026855 -995.5090332 824.95874023 C-990.98357685 834.37288989 -988.36459035 843.90622896 -985 854 C-906.79 854 -828.58 854 -748 854 C-746.02 847.07 -744.04 840.14 -742 833 C-740.13003753 827.90010234 -738.21835965 822.94196012 -736 818 C-735.64421875 817.20625977 -735.2884375 816.41251953 -734.921875 815.59472656 C-729.6568995 803.97229315 -723.89959408 792.76662866 -717.18115234 781.91552734 C-716.3290768 780.5336785 -715.49274925 779.14207572 -714.66650391 777.74462891 C-714.22612793 777.01034668 -713.78575195 776.27606445 -713.33203125 775.51953125 C-712.93346924 774.84639893 -712.53490723 774.1732666 -712.12426758 773.47973633 C-711.75325928 772.99142334 -711.38225098 772.50311035 -711 772 C-710.34 772 -709.68 772 -709 772 C-708.79375 771.34 -708.5875 770.68 -708.375 770 C-706.50875748 765.92819814 -704.02438473 762.31203002 -701 759 C-700.34 759 -699.68 759 -699 759 C-698.34 757.35 -697.68 755.7 -697 754 C-696.34 754 -695.68 754 -695 754 C-694.72687988 753.40614502 -694.45375977 752.81229004 -694.17236328 752.20043945 C-693.03605049 750.06766412 -691.87841352 748.55713575 -690.2421875 746.79296875 C-689.70335937 746.2100708 -689.16453125 745.62717285 -688.609375 745.02661133 C-688.03703125 744.41970459 -687.4646875 743.81279785 -686.875 743.1875 C-686.28460937 742.55803467 -685.69421875 741.92856934 -685.0859375 741.2800293 C-680.93548533 736.89577288 -676.66213581 732.83742587 -672 729 C-670.94372382 728.09560218 -669.8891925 727.18916447 -668.8359375 726.28125 C-667.68251129 725.29141068 -666.5288645 724.30182836 -665.375 723.3125 C-664.83617187 722.8481958 -664.29734375 722.3838916 -663.7421875 721.90551758 C-654.4419138 714 -654.4419138 714 -651 714 C-651 713.34 -651 712.68 -651 712 C-629.76502055 696.3742604 -604.22317385 685.73854449 -579.30078125 677.76171875 C-567.34702876 673.8678996 -556.17956682 667.79430332 -548 658 C-546.5192152 655.0384304 -546.64685963 652.16493705 -546.4375 648.875 C-546.35371094 647.59367188 -546.26992188 646.31234375 -546.18359375 644.9921875 C-546.12300781 644.00476563 -546.06242188 643.01734375 -546 642 C-545.01 642 -544.02 642 -543 642 C-542.67 631.44 -542.34 620.88 -542 610 C-541.01 609.67 -540.02 609.34 -539 609 C-538.67 602.4 -538.34 595.8 -538 589 C-537.01 589 -536.02 589 -535 589 C-534.67 582.4 -534.34 575.8 -534 569 C-533.01 569 -532.02 569 -531 569 C-530.67 562.4 -530.34 555.8 -530 549 C-529.01 549 -528.02 549 -527 549 C-526.67 542.4 -526.34 535.8 -526 529 C-525.01 528.67 -524.02 528.34 -523 528 C-522.67 521.73 -522.34 515.46 -522 509 C-521.01 508.67 -520.02 508.34 -519 508 C-518.67 501.73 -518.34 495.46 -518 489 C-516.68 488.67 -515.36 488.34 -514 488 C-514 482.72 -514 477.44 -514 472 C-513.01 472 -512.02 472 -511 472 C-510.67 465.4 -510.34 458.8 -510 452 C-508.68 452 -507.36 452 -506 452 C-506 445.73 -506 439.46 -506 433 C-504.68 432.67 -503.36 432.34 -502 432 C-502 426.72 -502 421.44 -502 416 C-500.68 416 -499.36 416 -498 416 C-498 410.72 -498 405.44 -498 400 C-496.68 399.67 -495.36 399.34 -494 399 C-494 394.05 -494 389.1 -494 384 C-492.68 383.67 -491.36 383.34 -490 383 C-490 379.37 -490 375.74 -490 372 C-488.68 371.67 -487.36 371.34 -486 371 C-486 367.37 -486 363.74 -486 360 C-484.68 359.67 -483.36 359.34 -482 359 C-482 356.36 -482 353.72 -482 351 C-480.68 351 -479.36 351 -478 351 C-478 347.04 -478 343.08 -478 339 C-476.68 339 -475.36 339 -474 339 C-474 336.36 -474 333.72 -474 331 C-472.68 331 -471.36 331 -470 331 C-470 328.03 -470 325.06 -470 322 C-469.01 322 -468.02 322 -467 322 C-466.67 319.36 -466.34 316.72 -466 314 C-465.01 314 -464.02 314 -463 314 C-462.67 311.36 -462.34 308.72 -462 306 C-461.01 306 -460.02 306 -459 306 C-458.67 303.36 -458.34 300.72 -458 298 C-457.01 298 -456.02 298 -455 298 C-453.515 294.04 -453.515 294.04 -452 290 C-451.34 290 -450.68 290 -450 290 C-449.67 287.69 -449.34 285.38 -449 283 C-447.68 282.67 -446.36 282.34 -445 282 C-445.33 280.35 -445.66 278.7 -446 277 C-445.01 277 -444.02 277 -443 277 C-443 276.01 -443 275.02 -443 274 C-442.34 274 -441.68 274 -441 274 C-441 272.68 -441 271.36 -441 270 C-440.01 269.67 -439.02 269.34 -438 269 C-437.67 266.69 -437.34 264.38 -437 262 C-435.68 262 -434.36 262 -433 262 C-433 260.68 -433 259.36 -433 258 C-431.68 258 -430.36 258 -429 258 C-429 255.36 -429 252.72 -429 250 C-427.68 250 -426.36 250 -425 250 C-425 248.68 -425 247.36 -425 246 C-423.68 246 -422.36 246 -421 246 C-421 244.35 -421 242.7 -421 241 C-420.01 241 -419.02 241 -418 241 C-418.33 240.01 -418.66 239.02 -419 238 C-418.34 238 -417.68 238 -417 238 C-417 236.68 -417 235.36 -417 234 C-415.68 234 -414.36 234 -413 234 C-413 232.68 -413 231.36 -413 230 C-411.68 230 -410.36 230 -409 230 C-409 228.35 -409 226.7 -409 225 C-408.01 225 -407.02 225 -406 225 C-406.33 224.01 -406.66 223.02 -407 222 C-406.34 222 -405.68 222 -405 222 C-405 220.68 -405 219.36 -405 218 C-403.68 218 -402.36 218 -401 218 C-401 216.68 -401 215.36 -401 214 C-399.68 214 -398.36 214 -397 214 C-397 212.68 -397 211.36 -397 210 C-395.68 210 -394.36 210 -393 210 C-393.0928125 208.824375 -393.0928125 208.824375 -393.1875 207.625 C-393.125625 206.75875 -393.06375 205.8925 -393 205 C-391.515 204.01 -391.515 204.01 -390 203 C-388.98133771 201.34467377 -387.98189187 199.67739862 -387 198 C-385.09160515 195.85305579 -383.43783953 194.62522635 -381 193 C-380.67 192.01 -380.34 191.02 -380 190 C-377.9375 189.3125 -377.9375 189.3125 -376 189 C-376 187.68 -376 186.36 -376 185 C-374.68 185 -373.36 185 -372 185 C-372 183.68 -372 182.36 -372 181 C-370.68 181 -369.36 181 -368 181 C-368 179.68 -368 178.36 -368 177 C-367.01 176.67 -366.02 176.34 -365 176 C-365 175.01 -365 174.02 -365 173 C-363.68 172.67 -362.36 172.34 -361 172 C-361 171.01 -361 170.02 -361 169 C-359.68 168.67 -358.36 168.34 -357 168 C-357 167.01 -357 166.02 -357 165 C-355.68 164.67 -354.36 164.34 -353 164 C-353 163.01 -353 162.02 -353 161 C-351.68 160.67 -350.36 160.34 -349 160 C-349 159.01 -349 158.02 -349 157 C-347.68 156.67 -346.36 156.34 -345 156 C-345 155.01 -345 154.02 -345 153 C-343.35 153 -341.7 153 -340 153 C-340 151.68 -340 150.36 -340 149 C-338.68 149 -337.36 149 -336 149 C-336 147.68 -336 146.36 -336 145 C-334.68 144.67 -333.36 144.34 -332 144 C-332 143.01 -332 142.02 -332 141 C-331.360625 140.896875 -330.72125 140.79375 -330.0625 140.6875 C-329.381875 140.460625 -328.70125 140.23375 -328 140 C-327.67 139.01 -327.34 138.02 -327 137 C-325.02 136.67 -323.04 136.34 -321 136 C-321.33 135.01 -321.66 134.02 -322 133 C-321.360625 132.896875 -320.72125 132.79375 -320.0625 132.6875 C-319.381875 132.460625 -318.70125 132.23375 -318 132 C-317.67 131.01 -317.34 130.02 -317 129 C-315.35 129 -313.7 129 -312 129 C-312 127.68 -312 126.36 -312 125 C-311.360625 124.896875 -310.72125 124.79375 -310.0625 124.6875 C-309.381875 124.460625 -308.70125 124.23375 -308 124 C-307.67 123.01 -307.34 122.02 -307 121 C-305.66666667 120.66666667 -304.33333333 120.33333333 -303 120 C-302.67 119.01 -302.34 118.02 -302 117 C-300.66666667 116.66666667 -299.33333333 116.33333333 -298 116 C-297.67 115.01 -297.34 114.02 -297 113 C-295.35 113 -293.7 113 -292 113 C-292 111.68 -292 110.36 -292 109 C-289.03 108.01 -289.03 108.01 -286 107 C-286 106.34 -286 105.68 -286 105 C-284.35 104.67 -282.7 104.34 -281 104 C-280.67 103.01 -280.34 102.02 -280 101 C-277.4375 99.8125 -277.4375 99.8125 -275 99 C-275 98.34 -275 97.68 -275 97 C-274.030625 96.71125 -273.06125 96.4225 -272.0625 96.125 C-268.89335797 95.35785318 -268.89335797 95.35785318 -268 93 C-266.824375 92.5359375 -266.824375 92.5359375 -265.625 92.0625 C-262.97885824 91.19925008 -262.97885824 91.19925008 -261.4375 89.375 C-260 88 -260 88 -256 88 C-256 87.01 -256 86.02 -256 85 C-254.576875 84.5978125 -254.576875 84.5978125 -253.125 84.1875 C-249.74732727 83.25013412 -249.74732727 83.25013412 -248 80 C-245.375 79.8125 -245.375 79.8125 -243 80 C-242.67 78.68 -242.34 77.36 -242 76 C-239.03 75.505 -239.03 75.505 -236 75 C-236 74.01 -236 73.02 -236 72 C-233.69 72 -231.38 72 -229 72 C-229 70.68 -229 69.36 -229 68 C-226.69 67.67 -224.38 67.34 -222 67 C-222 66.01 -222 65.02 -222 64 C-219.36 63.67 -216.72 63.34 -214 63 C-214 62.01 -214 61.02 -214 60 C-211.36 59.67 -208.72 59.34 -206 59 C-206 58.01 -206 57.02 -206 56 C-203.36 55.67 -200.72 55.34 -198 55 C-198 54.01 -198 53.02 -198 52 C-193.545 51.505 -193.545 51.505 -189 51 C-189 50.01 -189 49.02 -189 48 C-184.545 47.505 -184.545 47.505 -180 47 C-179.67 46.01 -179.34 45.02 -179 44 C-176.36 43.67 -173.72 43.34 -171 43 C-171 42.01 -171 41.02 -171 40 C-167.37 39.67 -163.74 39.34 -160 39 C-160 38.01 -160 37.02 -160 36 C-156.7 35.67 -153.4 35.34 -150 35 C-149.67 34.01 -149.34 33.02 -149 32 C-145.04 31.67 -141.08 31.34 -137 31 C-137.33 30.01 -137.66 29.02 -138 28 C-133.71 27.67 -129.42 27.34 -125 27 C-125.33 26.01 -125.66 25.02 -126 24 C-121.71 23.67 -117.42 23.34 -113 23 C-112.67 22.01 -112.34 21.02 -112 20 C-107.38 19.67 -102.76 19.34 -98 19 C-98.33 18.01 -98.66 17.02 -99 16 C-90.585 15.505 -90.585 15.505 -82 15 C-82 14.01 -82 13.02 -82 12 C-75.73 11.67 -69.46 11.34 -63 11 C-63 10.01 -63 9.02 -63 8 C-54.42 7.67 -45.84 7.34 -37 7 C-36.67 6.01 -36.34 5.02 -36 4 C-17.685 3.505 -17.685 3.505 1 3 C0.67 2.01 0.34 1.02 0 0 Z " fill="#FFFFFF" transform="translate(1508,85)"/>
<path d="M0 0 C4.62 0 9.24 0 14 0 C14.33 0.99 14.66 1.98 15 3 C17.01508358 3.73323796 17.01508358 3.73323796 19 4 C19 4.99 19 5.98 19 7 C21.31 7.33 23.62 7.66 26 8 C26.33 8.99 26.66 9.98 27 11 C29.97 11.495 29.97 11.495 33 12 C33.495 13.485 33.495 13.485 34 15 C35.98 15.33 37.96 15.66 40 16 C40 16.99 40 17.98 40 19 C42.64 19.33 45.28 19.66 48 20 C48.495 21.485 48.495 21.485 49 23 C51.64 23.33 54.28 23.66 57 24 C57.495 25.485 57.495 25.485 58 27 C60.64 27.33 63.28 27.66 66 28 C66.495 29.485 66.495 29.485 67 31 C69.64 31.33 72.28 31.66 75 32 C75.33 32.99 75.66 33.98 76 35 C79.3 35.33 82.6 35.66 86 36 C86.33 36.99 86.66 37.98 87 39 C92.445 39.495 92.445 39.495 98 40 C98.33 40.99 98.66 41.98 99 43 C104.445 43.495 104.445 43.495 110 44 C110.33 44.99 110.66 45.98 111 47 C116.445 47.495 116.445 47.495 122 48 C122.33 48.99 122.66 49.98 123 51 C127.29 51.33 131.58 51.66 136 52 C136 52.99 136 53.98 136 55 C140.29 55.33 144.58 55.66 149 56 C149 56.99 149 57.98 149 59 C152.96 59.33 156.92 59.66 161 60 C161 60.99 161 61.98 161 63 C165.29 63.33 169.58 63.66 174 64 C174 64.99 174 65.98 174 67 C180.93 67.495 180.93 67.495 188 68 C188 68.99 188 69.98 188 71 C194.93 71.495 194.93 71.495 202 72 C202 72.99 202 73.98 202 75 C207.28 75.33 212.56 75.66 218 76 C217.01 76.495 217.01 76.495 216 77 C216.33 77.66 216.66 78.32 217 79 C219.54941373 79.31241371 222.00361513 79.51303421 224.5625 79.625 C225.27341797 79.66367187 225.98433594 79.70234375 226.71679688 79.7421875 C228.47742425 79.83671783 230.23867728 79.91945817 232 80 C231.67 81.32 231.34 82.64 231 84 C235.62 84 240.24 84 245 84 C245 85.32 245 86.64 245 88 C249.62 88 254.24 88 259 88 C259.33 88.99 259.66 89.98 260 91 C265.94 91.495 265.94 91.495 272 92 C272.33 92.99 272.66 93.98 273 95 C273.69867187 95.06058594 274.39734375 95.12117188 275.1171875 95.18359375 C276.02726562 95.26738281 276.93734375 95.35117187 277.875 95.4375 C279.23238281 95.55931641 279.23238281 95.55931641 280.6171875 95.68359375 C283 96 283 96 285 97 C285 97.99 285 98.98 285 100 C290.94 100.495 290.94 100.495 297 101 C297 101.66 297 102.32 297 103 C300.63 103.66 304.26 104.32 308 105 C308 105.66 308 106.32 308 107 C310.97 107.66 313.94 108.32 317 109 C317 109.99 317 110.98 317 112 C319.97 112.33 322.94 112.66 326 113 C326 113.99 326 114.98 326 116 C329.96 116.495 329.96 116.495 334 117 C334 117.99 334 118.98 334 120 C337.96 120.495 337.96 120.495 342 121 C342 121.99 342 122.98 342 124 C344.31 124.33 346.62 124.66 349 125 C349.33 125.99 349.66 126.98 350 128 C351.98 128.33 353.96 128.66 356 129 C356.33 129.99 356.66 130.98 357 132 C358.65 132.33 360.3 132.66 362 133 C362.33 133.99 362.66 134.98 363 136 C364.65 136.33 366.3 136.66 368 137 C368.33 137.99 368.66 138.98 369 140 C370.65 140.33 372.3 140.66 374 141 C374.33 141.99 374.66 142.98 375 144 C376.65 144.33 378.3 144.66 380 145 C380.33 145.99 380.66 146.98 381 148 C383.00016466 149.20882096 383.00016466 149.20882096 385 150 C385 150.66 385 151.32 385 152 C385.639375 152.103125 386.27875 152.20625 386.9375 152.3125 C387.9584375 152.6528125 387.9584375 152.6528125 389 153 C389.33 153.99 389.66 154.98 390 156 C390.99 156.33 391.98 156.66 393 157 C393 158.32 393 159.64 393 161 C394.65 161 396.3 161 398 161 C398 161.99 398 162.98 398 164 C398.639375 164.103125 399.27875 164.20625 399.9375 164.3125 C400.9584375 164.6528125 400.9584375 164.6528125 402 165 C402.33 165.99 402.66 166.98 403 168 C403.99 168.33 404.98 168.66 406 169 C406 170.32 406 171.64 406 173 C407.32 173.33 408.64 173.66 410 174 C410 174.66 410 175.32 410 176 C411.32 176.66 412.64 177.32 414 178 C414 178.66 414 179.32 414 180 C414.99 180.33 415.98 180.66 417 181 C417 182.32 417 183.64 417 185 C418.32 185 419.64 185 421 185 C421 186.32 421 187.64 421 189 C422.32 189.33 423.64 189.66 425 190 C425.33 192.31 425.66 194.62 426 197 C427.32 197.33 428.64 197.66 430 198 C429.67 198.99 429.34 199.98 429 201 C429.61875 201.04125 430.2375 201.0825 430.875 201.125 C431.57625 201.41375 432.2775 201.7025 433 202 C434.25 205.0625 434.25 205.0625 435 208 C435.99 208 436.98 208 438 208 C438 209.98 438 211.96 438 214 C439.32 214 440.64 214 442 214 C442 216.64 442 219.28 442 222 C443.32 222 444.64 222 446 222 C446.33 224.31 446.66 226.62 447 229 C447.99 229.33 448.98 229.66 450 230 C450.33 232.31 450.66 234.62 451 237 C451.99 237.33 452.98 237.66 454 238 C454 240.64 454 243.28 454 246 C455.32 246 456.64 246 458 246 C458 248.64 458 251.28 458 254 C459.32 254.33 460.64 254.66 462 255 C462 258.63 462 262.26 462 266 C463.32 266 464.64 266 466 266 C466 269.96 466 273.92 466 278 C467.32 278.33 468.64 278.66 470 279 C470 283.95 470 288.9 470 294 C471.32 294.33 472.64 294.66 474 295 C474.33 301.6 474.66 308.2 475 315 C475.99 315 476.98 315 478 315 C478 324.24 478 333.48 478 343 C479.32 343 480.64 343 482 343 C482 369.4 482 395.8 482 423 C473 424 473 424 470 423 C470 420.36 470 417.72 470 415 C468.68 415 467.36 415 466 415 C466 412.36 466 409.72 466 407 C464.68 407 463.36 407 462 407 C461.87625 405.865625 461.7525 404.73125 461.625 403.5625 C461.315625 401.7990625 461.315625 401.7990625 461 400 C460.34 399.67 459.68 399.34 459 399 C458.67 398.01 458.34 397.02 458 396 C457.01 395.67 456.02 395.34 455 395 C454.32215008 392.66989091 453.65583207 390.33640176 453 388 C452.01 387.34 451.02 386.68 450 386 C450 385.34 450 384.68 450 384 C449.01 383.67 448.02 383.34 447 383 C446.67 382.01 446.34 381.02 446 380 C445.01 379.34 444.02 378.68 443 378 C442.67 377.34 442.34 376.68 442 376 C441.01 375.34 440.02 374.68 439 374 C439.33 373.34 439.66 372.68 440 372 C439.01 371.67 438.02 371.34 437 371 C437 370.01 437 369.02 437 368 C435.68 367.34 434.36 366.68 433 366 C433 365.34 433 364.68 433 364 C431.35 363.67 429.7 363.34 428 363 C428 362.01 428 361.02 428 360 C426.35 359.67 424.7 359.34 423 359 C423 358.01 423 357.02 423 356 C422.360625 355.896875 421.72125 355.79375 421.0625 355.6875 C420.0415625 355.3471875 420.0415625 355.3471875 419 355 C418.67 354.01 418.34 353.02 418 352 C416.35 351.67 414.7 351.34 413 351 C413 350.01 413 349.02 413 348 C411.02 347.67 409.04 347.34 407 347 C407.33 345.68 407.66 344.36 408 343 C405.69 343 403.38 343 401 343 C401 342.01 401 341.02 401 340 C398.69 339.67 396.38 339.34 394 339 C394 338.01 394 337.02 394 336 C391.36 335.67 388.72 335.34 386 335 C386 334.01 386 333.02 386 332 C383.03 331.67 380.06 331.34 377 331 C377 330.01 377 329.02 377 328 C373.7 327.67 370.4 327.34 367 327 C367 326.01 367 325.02 367 324 C363.04 323.67 359.08 323.34 355 323 C355 322.01 355 321.02 355 320 C350.38 319.67 345.76 319.34 341 319 C340.67 318.01 340.34 317.02 340 316 C339.26136719 315.97421875 338.52273438 315.9484375 337.76171875 315.921875 C331.04617634 315.54641901 325.49862478 314.40692153 319.27734375 311.83984375 C316.93542816 310.82699817 316.93542816 310.82699817 314 311 C318.74312198 313.16975931 318.74312198 313.16975931 323.75 314.5 C326 315 326 315 327.375 316.5 C329.90318499 318.83370922 332.67412977 318.68623866 336 319 C336 319.99 336 320.98 336 322 C337.11375 322.103125 338.2275 322.20625 339.375 322.3125 C341.169375 322.6528125 341.169375 322.6528125 343 323 C343.66 323.99 344.32 324.98 345 326 C348.06556598 326.73343428 348.06556598 326.73343428 351 327 C351 327.99 351 328.98 351 330 C353.31 330.33 355.62 330.66 358 331 C358 331.66 358 332.32 358 333 C359.134375 333.268125 360.26875 333.53625 361.4375 333.8125 C362.613125 334.204375 363.78875 334.59625 365 335 C365.33 335.99 365.66 336.98 366 338 C366.66 338.165 367.32 338.33 368 338.5 C368.66 338.665 369.32 338.83 370 339 C370.33 339.99 370.66 340.98 371 342 C372.65 342.33 374.3 342.66 376 343 C376.33 343.99 376.66 344.98 377 346 C377.66 346.165 378.32 346.33 379 346.5 C379.66 346.665 380.32 346.83 381 347 C381.33 347.99 381.66 348.98 382 350 C382.66 350.165 383.32 350.33 384 350.5 C384.66 350.665 385.32 350.83 386 351 C386.33 351.99 386.66 352.98 387 354 C389.00016466 355.20882096 389.00016466 355.20882096 391 356 C390.67 356.66 390.34 357.32 390 358 C392.31 358.33 394.62 358.66 397 359 C397 359.99 397 360.98 397 362 C398.32 362.66 399.64 363.32 401 364 C401 364.66 401 365.32 401 366 C402.32 366.66 403.64 367.32 405 368 C405 368.66 405 369.32 405 370 C406.32 370.66 407.64 371.32 409 372 C409 372.66 409 373.32 409 374 C409.66 374.33 410.32 374.66 411 375 C411.33 375.99 411.66 376.98 412 378 C412.99 378.66 413.98 379.32 415 380 C415 380.66 415 381.32 415 382 C415.99 382.33 416.98 382.66 418 383 C418 383.99 418 384.98 418 386 C418.99 386.33 419.98 386.66 421 387 C421 388.32 421 389.64 421 391 C422.32 391 423.64 391 425 391 C425 392.32 425 393.64 425 395 C425.66 395.33 426.32 395.66 427 396 C427 396.66 427 397.32 427 398 C427.99 398.66 428.98 399.32 430 400 C430 400.66 430 401.32 430 402 C431.32 402.66 432.64 403.32 434 404 C434 406.31 434 408.62 434 411 C435.32 411 436.64 411 438 411 C438 412.65 438 414.3 438 416 C439.32 416 440.64 416 442 416 C442 418.64 442 421.28 442 424 C443.32 424 444.64 424 446 424 C446 426.64 446 429.28 446 432 C447.32 432 448.64 432 450 432 C450.33 435.63 450.66 439.26 451 443 C451.99 443.33 452.98 443.66 454 444 C454 446.64 454 449.28 454 452 C455.32 452.33 456.64 452.66 458 453 C458 456.63 458 460.26 458 464 C452.06 464.33 446.12 464.66 440 465 C440 465.99 440 466.98 440 468 C428.12 468.495 428.12 468.495 416 469 C416 469.99 416 470.98 416 472 C396.2 472.33 376.4 472.66 356 473 C355.67 473.99 355.34 474.98 355 476 C341.8 476 328.6 476 315 476 C314.67 475.01 314.34 474.02 314 473 C300.14 472.67 286.28 472.34 272 472 C272.33 471.01 272.66 470.02 273 469 C265.74 468.67 258.48 468.34 251 468 C251 467.01 251 466.02 251 465 C245.72 464.67 240.44 464.34 235 464 C235 463.01 235 462.02 235 461 C230.71 460.67 226.42 460.34 222 460 C221.67 459.01 221.34 458.02 221 457 C217.04 456.67 213.08 456.34 209 456 C209 455.01 209 454.02 209 453 C206.03 452.67 203.06 452.34 200 452 C200 451.01 200 450.02 200 449 C197.03 448.67 194.06 448.34 191 448 C191 447.01 191 446.02 191 445 C188.03 444.67 185.06 444.34 182 444 C182 443.01 182 442.02 182 441 C179.69 440.67 177.38 440.34 175 440 C175 439.01 175 438.02 175 437 C172.69 436.67 170.38 436.34 168 436 C168 434.68 168 433.36 168 432 C165.69 432 163.38 432 161 432 C161 431.01 161 430.02 161 429 C159.02 428.67 157.04 428.34 155 428 C155 427.01 155 426.02 155 425 C153.02 424.34 151.04 423.68 149 423 C149 422.01 149 421.02 149 420 C147.35 419.67 145.7 419.34 144 419 C143.67 418.01 143.34 417.02 143 416 C140.98491642 415.26676204 140.98491642 415.26676204 139 415 C139 414.01 139 413.02 139 412 C137.02 411.67 135.04 411.34 133 411 C133 410.01 133 409.02 133 408 C131.35 407.67 129.7 407.34 128 407 C127.505 405.515 127.505 405.515 127 404 C126.01 403.67 125.02 403.34 124 403 C123.505 401.515 123.505 401.515 123 400 C120.99983534 398.79117904 120.99983534 398.79117904 119 398 C119 397.01 119 396.02 119 395 C117.68 394.67 116.36 394.34 115 394 C115 393.01 115 392.02 115 391 C113.68 391 112.36 391 111 391 C111 389.68 111 388.36 111 387 C109.68 387 108.36 387 107 387 C107 385.68 107 384.36 107 383 C105.68 382.67 104.36 382.34 103 382 C103 381.34 103 380.68 103 380 C102.01 379.67 101.02 379.34 100 379 C99.505 377.515 99.505 377.515 99 376 C96.99983534 374.79117904 96.99983534 374.79117904 95 374 C95 373.01 95 372.02 95 371 C94.01 371 93.02 371 92 371 C90 365.25 90 365.25 90 363 C89.01 363 88.02 363 87 363 C87 361.68 87 360.36 87 359 C85.68 359 84.36 359 83 359 C83 357.68 83 356.36 83 355 C81.68 355 80.36 355 79 355 C79 353.68 79 352.36 79 351 C78.34 350.67 77.68 350.34 77 350 C77.33 349.34 77.66 348.68 78 348 C77.01 348 76.02 348 75 348 C75 346.35 75 344.7 75 343 C73.68 343 72.36 343 71 343 C71 341.68 71 340.36 71 339 C70.34 339 69.68 339 69 339 C67 337 67 337 66.875 333.875 C66.91625 332.92625 66.9575 331.9775 67 331 C65.68 331 64.36 331 63 331 C63 328.36 63 325.72 63 323 C61.68 323 60.36 323 59 323 C58.67 320.36 58.34 317.72 58 315 C57.01 315 56.02 315 55 315 C55 313.35 55 311.7 55 310 C53.68 310 52.36 310 51 310 C51 307.36 51 304.72 51 302 C49.68 302 48.36 302 47 302 C46.36605303 297.95858806 45.87595548 294.0934693 46 290 C44.68 290.33 43.36 290.66 42 291 C42 288.03 42 285.06 42 282 C40.68 281.67 39.36 281.34 38 281 C38 279.02 38 277.04 38 275 C37.01 274.67 36.02 274.34 35 274 C33.73762269 271.47524538 33.90143596 269.68799534 33.9375 266.875 C33.94652344 265.96492188 33.95554687 265.05484375 33.96484375 264.1171875 C33.97644531 263.41851562 33.98804688 262.71984375 34 262 C32.68 261.67 31.36 261.34 30 261 C30 257.37 30 253.74 30 250 C28.68 249.67 27.36 249.34 26 249 C26 245.37 26 241.74 26 238 C24.68 237.67 23.36 237.34 22 237 C21.90912109 235.86111328 21.90912109 235.86111328 21.81640625 234.69921875 C21.69072266 233.20841797 21.69072266 233.20841797 21.5625 231.6875 C21.48128906 230.70136719 21.40007812 229.71523438 21.31640625 228.69921875 C21.08187441 225.90624401 21.08187441 225.90624401 20 223 C19.34 223.33 18.68 223.66 18 224 C17.67 218.39 17.34 212.78 17 207 C16.01 207 15.02 207 14 207 C13.67 201.06 13.34 195.12 13 189 C12.01 189.33 11.02 189.66 10 190 C10 183.07 10 176.14 10 169 C8.68 168.67 7.36 168.34 6 168 C6 160.41 6 152.82 6 145 C4.68 144.67 3.36 144.34 2 144 C2 132.45 2 120.9 2 109 C1.34 109 0.68 109 0 109 C0 73.03 0 37.06 0 0 Z " fill="#FFFFFF" transform="translate(463,178)"/>
<path d="" fill="#FFFFFF" transform="translate(0,0)"/>
<path d="" fill="#FFFFFF" transform="translate(0,0)"/>
</svg>
